<?xml version="1.0" ?><svg data-name="Social Media Icons" id="Social_Media_Icons" viewBox="0 0 512 512" xmlns="http://www.w3.org/2000/svg"><defs><style>.cls-1{fill:#25aff4;}</style></defs><path class="cls-1" d="M245.35,172.13C221,171.52,112,163.13,30.66,64.37a3.57,3.57,0,0,0-6,.79C16.45,83.3-5.89,146.22,51,196.62a3.58,3.58,0,0,1-2.41,6.28,63.33,63.33,0,0,1-30-8.3,3.57,3.57,0,0,0-5.36,3.16c.28,19.18,7.74,76.23,84,98.94,0,0,8.93,9.05-41.94,3.44A3.55,3.55,0,0,0,51.74,305c5.71,15,27.25,57.93,89,68a3.57,3.57,0,0,1,1.73,6.24c-14.75,12.5-59,42.87-138.74,40.12A3.57,3.57,0,0,0,1.67,426c37.33,23.7,167.32,91.78,312,0,161-102.22,151.46-258.84,149.66-277.81a3.55,3.55,0,0,1,1.3-3.11c6.37-5.18,31.54-26.16,46.66-46.07a3.58,3.58,0,0,0-3.8-5.62l-36,10a3.58,3.58,0,0,1-3.38-6.08c10.07-9.19,23.54-23.59,30.46-40a3.58,3.58,0,0,0-4.88-4.61C480.78,59,454.53,71,435.27,73.84a3.54,3.54,0,0,1-3-1c-8.71-8.52-63.81-57.94-133.73-18-64.95,37.11-54.29,96-49.68,112.74A3.58,3.58,0,0,1,245.35,172.13Z" id="Twitter"/></svg>